# xmcd CD database file
#
# Track frame offsets:
#	151
#	16921
#	35360
#	50151
#	65502
#	81336
#	95736
#	115505
#
# Disc length: 1837 seconds
#
# Revision: 0
# Processed by: cddbd v1.4PL0 Copyright (c) Steve Scherf et al.
# Submitted via: CDex 1.51
#
DISCID=64072b08
DTITLE=Root City Band - Root City Band
DYEAR=2000
DGENRE=Blues
TTITLE0=I'll Do What I Please
TTITLE1=We All Fall Down
TTITLE2=The Chain
TTITLE3=Grab It By The Horns
TTITLE4=My Friend
TTITLE5=Quit Your Lyin'
TTITLE6=Takes Me Away
TTITLE7=As One
EXTD=YEAR: 2000
EXTT0=
EXTT1=
EXTT2=
EXTT3=
EXTT4=
EXTT5=
EXTT6=
EXTT7=
PLAYORDER=
